inDegrees=no
num_controls=7
num_derivatives=13
num_iterations=129
num_multipliers=7
num_parameters=0
num_slacks=7
num_states=26
objective=0.543904
objective_accelerations=0.060801
objective_balance=0.003286
objective_effort=0.047207
objective_height=0.422850
objective_ligament=0.009760
solver_duration=1378.888352
status=Solve_Succeeded
success=true
DataType=double
version=3
OpenSimVersion=4.5
endheader
time	/jointset/ground_pelvis/pelvis_tilt/value	/jointset/ground_pelvis/pelvis_tx/value	/jointset/ground_pelvis/pelvis_ty/value	/jointset/hip_r/hip_flexion_r/value	/jointset/hip_r/hip_adduction_r/value	/jointset/hip_r/hip_rotation_r/value	/jointset/back/lumbar_extension/value	/jointset/patellofemoral_r/patellar_flexion_r/value	/jointset/knee_r/knee_flexion_r/value	/jointset/knee_r/knee_adduction_r/value	/jointset/knee_r/knee_rotation_r/value	/jointset/ankle_r/ankle_angle_r/value	/jointset/subtalar_r/subtalar_angle_r/value	/jointset/ground_pelvis/pelvis_tilt/speed	/jointset/ground_pelvis/pelvis_tx/speed	/jointset/ground_pelvis/pelvis_ty/speed	/jointset/hip_r/hip_flexion_r/speed	/jointset/hip_r/hip_adduction_r/speed	/jointset/hip_r/hip_rotation_r/speed	/jointset/back/lumbar_extension/speed	/jointset/patellofemoral_r/patellar_flexion_r/speed	/jointset/knee_r/knee_flexion_r/speed	/jointset/knee_r/knee_adduction_r/speed	/jointset/knee_r/knee_rotation_r/speed	/jointset/ankle_r/ankle_angle_r/speed	/jointset/subtalar_r/subtalar_angle_r/speed	/forceset/tau_hip_flexion_r	/forceset/tau_hip_adduction_r	/forceset/tau_hip_rotation_r	/forceset/tau_knee_flexion_r	/forceset/tau_ankle_angle_r	/forceset/tau_subtalar_angle_r	/forceset/tau_lumbar_extension	lambda_cid13_p0	lambda_cid14_p0	lambda_cid14_p1	lambda_cid14_p2	lambda_cid14_p3	lambda_cid14_p4	lambda_cid14_p5	/jointset/ground_pelvis/pelvis_tilt/accel	/jointset/ground_pelvis/pelvis_tx/accel	/jointset/ground_pelvis/pelvis_ty/accel	/jointset/hip_r/hip_flexion_r/accel	/jointset/hip_r/hip_adduction_r/accel	/jointset/hip_r/hip_rotation_r/accel	/jointset/back/lumbar_extension/accel	/jointset/patellofemoral_r/patellar_flexion_r/accel	/jointset/knee_r/knee_flexion_r/accel	/jointset/knee_r/knee_adduction_r/accel	/jointset/knee_r/knee_rotation_r/accel	/jointset/ankle_r/ankle_angle_r/accel	/jointset/subtalar_r/subtalar_angle_r/accel	gamma_cid13_p0	gamma_cid14_p0	gamma_cid14_p1	gamma_cid14_p2	gamma_cid14_p3	gamma_cid14_p4	gamma_cid14_p5
1	-0.3304226384851393	-0.01581352433448164	0.6179740206564578	1.598933313004526	-0.2449666597304938	0.06849457759948427	-0.4363176959983248	1.504803680653308	1.504803680653297	0.0296506225849774	0.1745155809584353	0.4363149792539972	0.08576617668598646	-0.002581189403816542	0.002466907412600996	0.01644321223271284	-0.04075469210785592	-0.0008336799403293349	-0.01505997619248285	-0.0004357933805898526	-0.04852882510577113	-0.04852882510576882	-0.001396208735384622	-7.890188808521521e-05	-0.007203786475082163	-0.003664353158197431	-0.3103979681071298	0.009047446867745498	0.0178491043576824	-0.5314165792851446	0.01059423083385409	-0.001707158218602031	0.3189101249851117	-0.04271288082213196	-47.44084844992141	-9.929322724478581	3.049693300739504	21.01904161695225	-819.1600647584054	61.58742650201745	1.269851112377023	0.002084369551297318	2.05571607171067	-6.033967777073721	-0.1070968647198997	-1.474798401426797	-0.02637284842771203	-5.818733869416601	-5.818733869416993	0.1898366465092852	0.001059742687714122	-1.327944220177151	-0.625748775245942	6.3582540411564e-10	1.7092337499312e-09	1.144132705400496e-08	9.383034463971905e-09	-4.588851674719115e-09	-6.822381571325044e-10	1.352244973776987e-08
1.01	-0.3303855593466582	-0.01578876340804634	0.6182409959158286	1.598225157632374	-0.2449801286915753	0.06827113739347113	-0.4363225628635973	1.504027914436459	1.504027914436455	0.02964661779155283	0.1745142880706889	0.43617657799744	0.08569862466980541	0.009995813531275297	0.002486639969440768	0.0369390463164728	-0.1008453039918704	-0.00185552240265773	-0.02961884589604484	-0.0005239925911864705	-0.1066011841998797	-0.1066011841998819	0.0005923919847157978	-0.0001818542405596569	-0.0204813606129048	-0.009838508074216337	-0.310295675023485	0.009067170560178051	0.01785735636675364	-0.530766648931425	0.01035180160149237	-0.001656083729258823	0.3188093926068757	-0.04272494284167553	-47.48653678701928	-9.904781211173969	3.03394759532743	21.03333480153016	-818.69831042489	61.55810797557318	1.251444255840075	0.002120010272269219	2.044597511378162	-5.991946212391333	-0.09903634048380583	-1.445049184210699	0.001994605585347298	-5.798002074625336	-5.798002074625732	0.2029450261869446	-0.01629386046392513	-1.328399067187121	-0.612110799258728	1.268072450507651e-09	3.2331560267826e-09	2.891137762161004e-08	1.850290144962358e-08	-9.959812534695256e-09	-2.811414925554964e-09	3.494486779052904e-08
1.02	-0.330222746304476	-0.0157637646937382	0.6187125456029711	1.596917028477717	-0.2450036777579815	0.06790238490455106	-0.4363279041083495	1.502672121599625	1.502672121599628	0.02966241365359767	0.1745119014321796	0.4359052539881524	0.08556955871456776	0.0225655913369622	0.002514464987170128	0.05735809778701011	-0.1607494486089252	-0.002849701004764161	-0.04412243277520319	-0.0005306692833409968	-0.1645341491026826	-0.1645341491026863	0.002563922361880283	-0.0002976520429875029	-0.03378833701481917	-0.01596714096939177	-0.3101933819398309	0.009086894252608176	0.01786560837586981	-0.5301167185777049	0.01010937236912797	-0.001605009239921645	0.3187086602286485	-0.0427450194333243	-47.54120383433499	-9.879618671616068	3.015597812455657	21.08020615881448	-818.3731737417588	61.52948734856373	1.268406086496011	0.003702861729246182	2.04035954906614	-5.996674323681796	-0.101564092675522	-1.46374183654608	-0.01006834473891595	-5.790855031155464	-5.790855031155234	0.1864225779221029	-0.001509347302939144	-1.333824672995437	-0.616644371077251	2.252348147748577e-09	2.342639414202618e-09	4.520630987969705e-08	2.871328185500807e-08	-9.483965245782939e-09	-6.374477407956389e-09	5.522292109408493e-08
1.03	-0.3299343967492212	-0.01573833567514063	0.6193878853942096	1.595010807203499	-0.2450370136524262	0.06738892774379555	-0.4363322468711833	1.500737637832808	1.500737637832814	0.02969788285860393	0.1745082890023901	0.4355007695756252	0.08537950210062097	0.03508991309710348	0.002583865144528607	0.07769539028995885	-0.2204615565881101	-0.003811202478500878	-0.058554765272992	-0.0002576163413389078	-0.2223453432099109	-0.2223453432099138	0.004531014807061896	-0.0004273922134522594	-0.0471077309616276	-0.02202981263734795	-0.3103126823457066	0.009145665838033411	0.01789742735163738	-0.5292616697132431	0.009978983418662333	-0.001568804892738892	0.3189230453860187	-0.04276990310105394	-47.55713533372079	-9.853062142291821	2.995803829963843	20.95818905377029	-818.1179299247303	61.46878152402372	1.242284449380058	0.0104357681526553	2.028241563180779	-5.953491497172915	-0.09249511061621354	-1.430845556660887	0.05803215768282625	-5.773663096879218	-5.773663096879186	0.2020212095786716	-0.01907812080388957	-1.330876965441381	-0.5989087162695492	3.2402159740798e-09	1.427485670097812e-09	6.148925113462571e-08	3.893478994834901e-08	-8.94845664922887e-09	-9.952171377235156e-09	7.548929720632242e-08
1.04	-0.3295212361306453	-0.01571183721988672	0.6202661636029319	1.592508462357069	-0.245079774948789	0.06673157393801377	-0.4363314510959483	1.498225559825644	1.498225559825648	0.02975305671439585	0.1745033048171265	0.4349631151816408	0.08512925273967095	0.04752780400152256	0.002728352318439094	0.09794578128376251	-0.279974163052738	-0.004734781387972509	-0.07290176178141006	0.0004970383611821104	-0.2800529971720481	-0.2800529971720497	0.006504852522746544	-0.0005720031393402966	-0.06042233330514993	-0.02800569036989629	-0.3104319827515419	0.009204437423452165	0.01792924632746324	-0.5284066208487805	0.009848594468188282	-0.001532600545571208	0.3191374305434285	-0.04280286941360614	-47.58214158272724	-9.825943789261675	2.973463620450212	20.86849349232513	-818.0006569217079	61.40937273987493	1.251119915351557	0.01872026503965895	2.02297924723712	-5.956774020770399	-0.09397957982252506	-1.446674638671948	0.0862520073650087	-5.770147002137225	-5.770147002136931	0.187771632022717	-0.004483498387554651	-1.332866352338202	-0.5992855839957041	3.87470669167419e-09	2.497931839020512e-10	7.615460192707616e-08	4.619773336444517e-08	-7.898867524352817e-09	-1.362798826622202e-08	9.193574177699637e-08
